<?xml version="1.0" encoding="utf-8"?>
<!-- Generator: Adobe Illustrator 18.1.1, SVG Export Plug-In . SVG Version: 6.00 Build 0)  -->
<svg version="1.1" xmlns="http://www.w3.org/2000/svg" xmlns:xlink="http://www.w3.org/1999/xlink" x="0px" y="0px"
	 viewBox="0 0 124 40" enable-background="new 0 0 124 40" xml:space="preserve">
<g id="Layer_1">
	<g>
		<path fill="#0F7255" d="M54.3,18.5C54.3,18.5,54.3,18.5,54.3,18.5v5c0,0.6-0.5,1.1-1.1,1.1c-0.6,0-1.1-0.5-1.1-1.1v-4.9
			c0,0,0,0,0-0.1c0-1.1-1-2.1-2.1-2.1c-1.1,0-2.1,1-2.1,2.1v4.9c0,0,0,0.1,0,0.1c0,0,0,0.1,0,0.1c0,0,0,0.1-0.1,0.1c0,0,0,0.1,0,0.1
			c-0.2,0.4-0.6,0.7-1,0.7c-0.1,0-0.1,0-0.2,0c-0.5-0.1-0.9-0.5-0.9-1.1v-4.9c0,0,0,0,0,0v-3.2c0-0.6,0.5-1.1,1.1-1.1
			c0.4,0,0.8,0.2,1,0.6c0.7-0.4,1.4-0.6,2.2-0.6c1.3,0,2.5,0.5,3.2,1.4c0.8-0.9,1.9-1.4,3.2-1.4c2.4,0,4.3,1.9,4.3,4.3v4.9
			c0,0.6-0.5,1.1-1.1,1.1c-0.6,0-1.1-0.5-1.1-1.1v-4.9c0-1.2-1-2.1-2.1-2.1C55.3,16.4,54.4,17.4,54.3,18.5z"/>
		<path fill="#0F7255" d="M74.1,19.4v4.1c0,0.6-0.5,1.1-1.1,1.1c-0.5,0-1-0.4-1.1-0.9c-0.8,0.6-1.7,0.9-2.8,0.9
			c-1.4,0-2.6-0.6-3.5-1.5c-0.9-1-1.4-2.2-1.4-3.6c0-1.4,0.5-2.7,1.4-3.6c0.9-1,2.1-1.6,3.5-1.6c1,0,2,0.4,2.8,0.9
			c0.1-0.5,0.5-0.9,1.1-0.9c0.6,0,1.1,0.5,1.1,1.1V19.4z M71.9,19.4c0-0.9-0.3-1.6-0.8-2.1c-0.5-0.6-1.2-0.8-1.9-0.8
			c-0.7,0-1.4,0.3-1.9,0.8c-0.5,0.5-0.8,1.3-0.8,2.1c0,0.8,0.3,1.6,0.8,2.1c0.5,0.5,1.2,0.8,1.9,0.8c0.7,0,1.4-0.3,1.9-0.8
			C71.6,21,71.9,20.3,71.9,19.4z"/>
		<path fill="#0F7255" d="M85.5,16l-4.7,6.4h3.8c0.6,0,1.1,0.5,1.1,1.1c0,0.6-0.5,1.1-1.1,1.1h-6c-0.1,0-0.1,0-0.2,0c0,0,0,0-0.1,0
			c0,0-0.1,0-0.1,0c0,0-0.1,0-0.1,0c0,0-0.1,0-0.1,0c0,0,0,0,0-0.1c0,0,0,0,0,0c0,0,0,0-0.1,0c0,0-0.1-0.1-0.1-0.1
			c0-0.1-0.1-0.1-0.1-0.1c0,0,0-0.1-0.1-0.1c0,0,0,0,0-0.1c0,0-0.1,0-0.1-0.1c0,0,0,0,0-0.1c0,0,0-0.1,0-0.1c0,0,0-0.1,0-0.1
			c0,0,0,0,0-0.1c0,0,0,0,0,0c0,0,0-0.1,0-0.1c0,0,0,0,0-0.1c0,0,0-0.1,0-0.1c0,0,0-0.1,0-0.1c0,0,0.1-0.1,0.1-0.1
			c0,0,0-0.1,0.1-0.1c0,0,0,0,0,0l4.7-6.4h-3.8c-0.6,0-1.1-0.5-1.1-1.1c0-0.6,0.5-1.1,1.1-1.1h6c0,0,0.1,0,0.1,0c0.1,0,0.1,0,0.1,0
			c0,0,0.1,0,0.1,0c0,0,0.1,0,0.1,0c0,0,0,0.1,0.1,0.1c0,0,0.1,0,0.1,0.1c0,0,0,0,0,0c0,0,0,0,0,0c0,0,0.1,0,0.1,0.1
			c0,0,0,0,0.1,0.1c0,0,0,0.1,0.1,0.1c0,0,0,0,0.1,0c0,0.1,0,0.1,0,0.1c0,0,0,0.1,0,0.1c0,0,0,0.1,0,0.1c0,0,0,0.1,0,0.1
			c0,0,0,0.1,0,0.1v0c0,0,0,0.1,0,0.1c0,0.1,0,0.1,0,0.1c0,0,0,0.1,0,0.1c0,0,0,0.1-0.1,0.1c0,0,0,0,0,0.1
			C85.5,15.9,85.5,15.9,85.5,16C85.5,15.9,85.5,15.9,85.5,16z"/>
		<path fill="#0F7255" d="M88.6,19.4c0-2.8,2.2-5.2,5-5.2c2.7,0,4.8,2,5,4.8c0,0,0,0.1,0,0.1c0,0,0,0.1,0,0.2
			c-0.1,0.5-0.5,0.8-1.1,0.8H91c0.1,0.5,0.3,1,0.7,1.4c0.4,0.5,1.3,0.9,2,0.9c0.7,0.1,1.6-0.1,2.2-0.5c0.4-0.5,1.3-0.4,1.6-0.1
			c0.3,0.3,0.5,0.9,0,1.3c-1,0.9-2.2,1.4-3.7,1.4C90.8,24.5,88.6,22.2,88.6,19.4z M90.9,18.4h5.9c-0.2-0.8-1.3-2-3.1-2.2
			C91.9,16.3,91,17.5,90.9,18.4z"/>
		<path fill="#383A42" d="M102.7,22.7c0.5,0,0.9,0.4,0.9,0.9s-0.4,0.9-0.9,0.9s-0.9-0.4-0.9-0.9S102.1,22.7,102.7,22.7z"/>
		<g>
			<path fill="#383A42" d="M114,16v6.8c0,0.3,0.3,0.4,0.4,0.4c0.5,0,0.9,0.4,0.9,0.9s-0.5,0.9-1,0.9c-1.2,0-2.3-0.9-2.3-2.1V16h-0.7
				c-0.9,0-0.9-0.8-0.9-1c0-0.2,0-1,0.9-1h0.7v-3.3c0-0.5,0.5-0.9,1-0.9c0.5,0,1,0.4,1,0.9V14h0.9c0.5,0,0.9,0.5,0.9,1
				c0,0.5-0.4,1-0.9,1H114z"/>
			<path fill="#383A42" d="M108,10.6v13.5c0,0.5-0.5,0.9-1,0.9c-0.5,0-1-0.4-1-0.9V10.6c0-0.5,0.5-0.9,1-0.9
				C107.5,9.7,108,10.1,108,10.6z"/>
		</g>
	</g>
</g>
<g id="Layer_3">
	<g>
		<path fill="#0F7255" d="M20.2,36.8c-9.6,0-17.5-7.8-17.5-17.5c0-9.6,7.8-17.5,17.5-17.5c9.6,0,17.5,7.8,17.5,17.5
			C37.7,29,29.9,36.8,20.2,36.8z M20.2,3.6c-8.7,0-15.7,7-15.7,15.7S11.6,35,20.2,35c8.7,0,15.7-7,15.7-15.7S28.9,3.6,20.2,3.6z"/>
	</g>
</g>
<g id="Layer_2">
	<path fill-rule="evenodd" clip-rule="evenodd" fill="#0F7255" d="M30.1,17.7c-0.8-3.2-1.8-6.4-5.6-5.9c-1.5,0.2-2.6,1.1-4.2,1.1
		c-1.4,0-2.4-0.9-3.7-1.1c-3.8-0.6-4.7,1.2-5.8,4.6c-0.6,1.9-2.6,8.5-0.4,10.1c2.3,1.6,4.8-2.8,6.5-3.5c1.5-0.6,4.7-0.5,6.2-0.1
		c2,0.6,4,4.4,6.2,3.9C32.4,26.2,30.6,19.7,30.1,17.7z M15.8,20.5c-1.7,0-3-1.3-3-3c0-1.7,1.3-3,3-3c1.7,0,3,1.3,3,3
		C18.8,19.2,17.4,20.5,15.8,20.5z M25.1,15c0.3-0.3,0.9-0.3,1.2,0c0.3,0.3,0.3,0.9,0,1.2c-0.3,0.3-0.9,0.3-1.2,0
		C24.8,15.9,24.8,15.4,25.1,15z M23.4,17.9c-0.3-0.3-0.3-0.9,0-1.2c0.3-0.3,0.9-0.3,1.2,0c0.3,0.3,0.3,0.9,0,1.2
		C24.3,18.3,23.8,18.3,23.4,17.9z M26.3,19.6c-0.3,0.3-0.9,0.3-1.2,0c-0.3-0.3-0.3-0.9,0-1.2c0.3-0.3,0.9-0.3,1.2,0
		C26.6,18.7,26.6,19.2,26.3,19.6z M27.9,17.9c-0.3,0.3-0.9,0.3-1.2,0c-0.3-0.3-0.3-0.9,0-1.2c0.3-0.3,0.9-0.3,1.2,0
		C28.3,17,28.3,17.5,27.9,17.9z M15.8,15.8c-1,0-1.8,0.8-1.8,1.8c0,1,0.8,1.8,1.8,1.8c1,0,1.8-0.8,1.8-1.8
		C17.5,16.6,16.7,15.8,15.8,15.8z"/>
</g>
</svg>
